<svg aria-hidden="true" style="position: absolute; width: 0; height: 0; overflow: hidden;" version="1.1" xmlns="http://www.w3.org/2000/svg" xmlns:xlink="http://www.w3.org/1999/xlink">
<defs>
<symbol id="icon-arrow-courses" viewBox="0 0 32 32">
<path stroke-linejoin="round" stroke-linecap="round" stroke-miterlimit="4" stroke-width="2.0800" d="M8 24l16-16"></path>
<path stroke-linejoin="round" stroke-linecap="round" stroke-miterlimit="4" stroke-width="2.0800" d="M13.333 8h10.667v10.667"></path>
</symbol>
<symbol id="icon-arrow" viewBox="0 0 34 32">
<path d="M16.127 6.678l11.784-0.368-2.408 11.541-3.876-4.619-16.127 13.532-1.624-1.935 16.127-13.532-3.876-4.619z"></path>
</symbol>
<symbol id="icon-burger-menu" viewBox="0 0 46 32">
<path stroke-linejoin="miter" stroke-linecap="round" stroke-miterlimit="4" stroke-width="3.4286" d="M8.671 5.074h35.329"></path>
<path stroke-linejoin="miter" stroke-linecap="round" stroke-miterlimit="4" stroke-width="3.4286" d="M8.671 24.468h35.329"></path>
<path stroke-linejoin="miter" stroke-linecap="round" stroke-miterlimit="4" stroke-width="3.4286" d="M19.602 14.771h24.398"></path>
</symbol>
<symbol id="icon-camera" viewBox="0 0 32 32">
<path d="M21 17c0 1.326-0.527 2.598-1.464 3.536s-2.209 1.464-3.536 1.464-2.598-0.527-3.536-1.464c-0.938-0.938-1.464-2.21-1.464-3.536s0.527-2.598 1.464-3.536c0.938-0.938 2.209-1.464 3.536-1.464s2.598 0.527 3.536 1.464c0.938 0.938 1.464 2.209 1.464 3.536z"></path>
<path d="M4 8c-1.061 0-2.078 0.421-2.828 1.172s-1.172 1.768-1.172 2.828v12c0 1.061 0.421 2.078 1.172 2.828s1.768 1.172 2.828 1.172h24c1.061 0 2.078-0.421 2.828-1.172s1.172-1.768 1.172-2.828v-12c0-1.061-0.421-2.078-1.172-2.828s-1.768-1.172-2.828-1.172h-2.344c-1.061-0-2.078-0.422-2.828-1.172l-1.656-1.656c-0.75-0.75-1.767-1.172-2.828-1.172h-4.688c-1.061 0-2.078 0.422-2.828 1.172l-1.656 1.656c-0.75 0.75-1.767 1.172-2.828 1.172h-2.344zM5 12c-0.265 0-0.52-0.105-0.707-0.293s-0.293-0.442-0.293-0.707c0-0.265 0.105-0.52 0.293-0.707s0.442-0.293 0.707-0.293c0.265 0 0.52 0.105 0.707 0.293s0.293 0.442 0.293 0.707c0 0.265-0.105 0.52-0.293 0.707s-0.442 0.293-0.707 0.293zM23 17c0 1.857-0.737 3.637-2.050 4.95s-3.093 2.050-4.95 2.050c-1.857 0-3.637-0.737-4.95-2.050s-2.050-3.093-2.050-4.95c0-1.857 0.738-3.637 2.050-4.95s3.093-2.050 4.95-2.050c1.857 0 3.637 0.738 4.95 2.050s2.050 3.093 2.050 4.95z"></path>
</symbol>
<symbol id="icon-close" viewBox="0 0 32 32">
<path stroke-linejoin="round" stroke-linecap="round" stroke-miterlimit="4" stroke-width="3" d="M24 8l-16 16"></path>
<path stroke-linejoin="round" stroke-linecap="round" stroke-miterlimit="4" stroke-width="3" d="M8 8l16 16"></path>
</symbol>
<symbol id="icon-star-review" viewBox="0 0 32 32">
<path stroke-linejoin="round" stroke-linecap="round" stroke-miterlimit="4" stroke-width="2.4" d="M16 3.2l3.955 7.899 8.845 1.274-6.4 6.145 1.51 8.681-7.91-4.101-7.91 4.101 1.51-8.681-6.4-6.145 8.845-1.274 3.955-7.899z"></path>
</symbol>
<symbol id="icon-star" viewBox="0 0 32 32">
<path stroke-linejoin="round" stroke-linecap="round" stroke-miterlimit="4" stroke-width="2.4" d="M16 2.667l4.12 8.347 9.213 1.347-6.667 6.493 1.573 9.173-8.24-4.333-8.24 4.333 1.573-9.173-6.667-6.493 9.213-1.347 4.12-8.347z"></path>
</symbol>
<symbol id="icon-logo" viewBox="0 0 159 32">
<path d="M18.185 12.108h-8.306v7.964h-3.954v-18.887h13.454v3.3h-9.5v4.295h8.306v3.328z"></path>
<path d="M26.2 17.342c2.247 0 3.385-1.422 3.385-4.267s-1.138-4.238-3.385-4.238c-2.247 0-3.385 1.394-3.385 4.238s1.138 4.267 3.385 4.267zM26.2 20.442c-4.523 0-7.196-3.015-7.196-7.367 0-4.437 2.759-7.367 7.196-7.367 4.38 0 7.111 2.901 7.111 7.367 0 4.437-2.759 7.367-7.111 7.367z"></path>
<path d="M43.525 15.009h3.726c-0.398 3.243-3.044 5.433-6.428 5.433-3.812 0-6.428-2.532-6.428-7.538s2.617-7.196 6.542-7.196c3.641 0 6.116 2.076 6.343 5.376h-3.726c-0.199-1.451-1.252-2.304-2.645-2.304-1.564 0-2.844 0.996-2.844 4.039s1.28 4.523 2.731 4.523c1.451 0 2.588-0.825 2.731-2.332z"></path>
<path d="M60.946 20.072h-3.499v-1.963c-0.967 1.593-2.418 2.332-4.352 2.332-2.788 0-4.75-2.076-4.75-5.148v-9.216h3.698v8.647c0 1.764 0.796 2.617 2.361 2.617 1.877 0 2.873-1.337 2.873-3.186v-8.078h3.669v13.995z"></path>
<path d="M74.542 10.316h-3.556c-0.199-1.365-0.939-1.849-2.617-1.849-1.394 0-2.19 0.341-2.19 1.166s0.768 1.166 2.276 1.593c1.593 0.455 3.1 0.768 4.181 1.195 1.479 0.597 2.304 1.564 2.304 3.385 0 2.901-2.133 4.636-6.116 4.636-4.295 0-6.684-2.020-6.741-4.864h3.811c0 1.308 1.109 2.076 2.901 2.076 1.308 0 2.475-0.398 2.475-1.451 0-0.996-1.053-1.308-2.247-1.593-2.361-0.569-3.669-0.967-4.665-1.593-1.308-0.825-1.763-1.906-1.763-3.157 0-2.361 1.621-4.153 5.888-4.153 4.039 0 5.86 1.593 6.059 4.608z"></path>
<path d="M79.852 20.072h-3.954v-3.84h3.954v3.84z"></path>
<path d="M93.463 12.108h-8.306v7.964h-3.954v-18.887h13.454v3.3h-9.5v4.295h8.306v3.328z"></path>
<path d="M98.792 20.072h-3.698v-13.995h3.47v1.678c1.223-1.877 2.645-2.048 4.153-2.048h0.484v3.783c-0.341-0.057-0.683-0.085-1.024-0.085-2.276 0-3.385 1.138-3.385 3.385v7.282z"></path>
<path d="M112.016 14.753l0.028-1.536c-0.37 0.37-1.024 0.569-2.389 0.825-2.105 0.398-2.788 0.996-2.788 2.19 0 1.052 0.626 1.564 1.792 1.564 1.906 0 3.328-1.394 3.356-3.044zM115.742 20.072h-3.442c-0.114-0.341-0.199-0.825-0.228-1.252-0.882 0.967-2.361 1.621-4.238 1.621-3.186 0-4.665-1.564-4.665-3.84 0-4.039 2.702-4.494 6.428-5.006 1.849-0.256 2.361-0.626 2.361-1.593 0-0.91-0.91-1.451-2.361-1.451-1.678 0-2.361 0.825-2.532 2.076h-3.442c0.057-2.901 1.65-4.921 6.144-4.921 4.437 0 5.973 1.991 5.973 5.518v8.846z"></path>
<path d="M137.397 20.072h-3.612v-8.476c0-1.678-0.882-2.873-2.19-2.873-1.365 0-2.361 1.28-2.361 2.987v8.363h-3.698v-8.42c0-2.247-0.597-2.816-2.219-2.816-1.479 0-2.247 0.91-2.247 2.731v8.505h-3.698v-13.995h3.47v2.048c0.939-1.849 2.247-2.418 4.096-2.418 1.906 0 2.816 0.597 3.897 2.219 0.768-1.536 2.020-2.219 3.783-2.219 2.816 0 4.779 2.048 4.779 4.665v9.7z"></path>
<path d="M142.316 11.71h5.717c-0.057-2.076-1.422-3.072-2.873-3.072-1.479 0-2.702 1.138-2.844 3.072zM151.845 14.042h-9.643c0.114 2.105 1.308 3.47 3.129 3.47 1.195 0 2.247-0.597 2.503-1.564h3.812c-0.853 2.873-3.157 4.494-6.144 4.494-4.665 0-6.997-2.56-6.997-7.623 0-4.324 2.475-7.111 6.77-7.111s6.571 2.788 6.571 8.334z"></path>
<path stroke-linejoin="miter" stroke-linecap="butt" stroke-miterlimit="4" stroke-width="2.3704" d="M18.185 12.108h-8.306v7.964h-3.954v-18.887h13.454v3.3h-9.5v4.295h8.306v3.328z"></path>
<path stroke-linejoin="miter" stroke-linecap="butt" stroke-miterlimit="4" stroke-width="2.3704" d="M26.2 17.342c2.247 0 3.385-1.422 3.385-4.267s-1.138-4.238-3.385-4.238c-2.247 0-3.385 1.394-3.385 4.238s1.138 4.267 3.385 4.267zM26.2 20.442c-4.523 0-7.196-3.015-7.196-7.367 0-4.437 2.759-7.367 7.196-7.367 4.38 0 7.111 2.901 7.111 7.367 0 4.437-2.759 7.367-7.111 7.367z"></path>
<path stroke-linejoin="miter" stroke-linecap="butt" stroke-miterlimit="4" stroke-width="2.3704" d="M43.525 15.009h3.726c-0.398 3.243-3.044 5.433-6.428 5.433-3.812 0-6.428-2.532-6.428-7.538s2.617-7.196 6.542-7.196c3.641 0 6.116 2.076 6.343 5.376h-3.726c-0.199-1.451-1.252-2.304-2.645-2.304-1.564 0-2.844 0.996-2.844 4.039s1.28 4.523 2.731 4.523c1.451 0 2.588-0.825 2.731-2.332z"></path>
<path stroke-linejoin="miter" stroke-linecap="butt" stroke-miterlimit="4" stroke-width="2.3704" d="M60.946 20.072h-3.499v-1.963c-0.967 1.593-2.418 2.332-4.352 2.332-2.788 0-4.75-2.076-4.75-5.148v-9.216h3.698v8.647c0 1.764 0.796 2.617 2.361 2.617 1.877 0 2.873-1.337 2.873-3.186v-8.078h3.669v13.995z"></path>
<path stroke-linejoin="miter" stroke-linecap="butt" stroke-miterlimit="4" stroke-width="2.3704" d="M74.542 10.316h-3.556c-0.199-1.365-0.939-1.849-2.617-1.849-1.394 0-2.19 0.341-2.19 1.166s0.768 1.166 2.276 1.593c1.593 0.455 3.1 0.768 4.181 1.195 1.479 0.597 2.304 1.564 2.304 3.385 0 2.901-2.133 4.636-6.116 4.636-4.295 0-6.684-2.020-6.741-4.864h3.811c0 1.308 1.109 2.076 2.901 2.076 1.308 0 2.475-0.398 2.475-1.451 0-0.996-1.053-1.308-2.247-1.593-2.361-0.569-3.669-0.967-4.665-1.593-1.308-0.825-1.763-1.906-1.763-3.157 0-2.361 1.621-4.153 5.888-4.153 4.039 0 5.86 1.593 6.059 4.608z"></path>
<path stroke-linejoin="miter" stroke-linecap="butt" stroke-miterlimit="4" stroke-width="2.3704" d="M79.852 20.072h-3.954v-3.84h3.954v3.84z"></path>
<path stroke-linejoin="miter" stroke-linecap="butt" stroke-miterlimit="4" stroke-width="2.3704" d="M93.463 12.108h-8.306v7.964h-3.954v-18.887h13.454v3.3h-9.5v4.295h8.306v3.328z"></path>
<path stroke-linejoin="miter" stroke-linecap="butt" stroke-miterlimit="4" stroke-width="2.3704" d="M98.792 20.072h-3.698v-13.995h3.47v1.678c1.223-1.877 2.645-2.048 4.153-2.048h0.484v3.783c-0.341-0.057-0.683-0.085-1.024-0.085-2.276 0-3.385 1.138-3.385 3.385v7.282z"></path>
<path stroke-linejoin="miter" stroke-linecap="butt" stroke-miterlimit="4" stroke-width="2.3704" d="M112.016 14.753l0.028-1.536c-0.37 0.37-1.024 0.569-2.389 0.825-2.105 0.398-2.788 0.996-2.788 2.19 0 1.052 0.626 1.564 1.792 1.564 1.906 0 3.328-1.394 3.356-3.044zM115.742 20.072h-3.442c-0.114-0.341-0.199-0.825-0.228-1.252-0.882 0.967-2.361 1.621-4.238 1.621-3.186 0-4.665-1.564-4.665-3.84 0-4.039 2.702-4.494 6.428-5.006 1.849-0.256 2.361-0.626 2.361-1.593 0-0.91-0.91-1.451-2.361-1.451-1.678 0-2.361 0.825-2.532 2.076h-3.442c0.057-2.901 1.65-4.921 6.144-4.921 4.437 0 5.973 1.991 5.973 5.518v8.846z"></path>
<path stroke-linejoin="miter" stroke-linecap="butt" stroke-miterlimit="4" stroke-width="2.3704" d="M137.397 20.072h-3.612v-8.476c0-1.678-0.882-2.873-2.19-2.873-1.365 0-2.361 1.28-2.361 2.987v8.363h-3.698v-8.42c0-2.247-0.597-2.816-2.219-2.816-1.479 0-2.247 0.91-2.247 2.731v8.505h-3.698v-13.995h3.47v2.048c0.939-1.849 2.247-2.418 4.096-2.418 1.906 0 2.816 0.597 3.897 2.219 0.768-1.536 2.020-2.219 3.783-2.219 2.816 0 4.779 2.048 4.779 4.665v9.7z"></path>
<path stroke-linejoin="miter" stroke-linecap="butt" stroke-miterlimit="4" stroke-width="2.3704" d="M142.316 11.71h5.717c-0.057-2.076-1.422-3.072-2.873-3.072-1.479 0-2.702 1.138-2.844 3.072zM151.845 14.042h-9.643c0.114 2.105 1.308 3.47 3.129 3.47 1.195 0 2.247-0.597 2.503-1.564h3.812c-0.853 2.873-3.157 4.494-6.144 4.494-4.665 0-6.997-2.56-6.997-7.623 0-4.324 2.475-7.111 6.77-7.111s6.571 2.788 6.571 8.334z"></path>
</symbol>
<symbol id="icon-arrow-stroke" viewBox="0 0 64 32">
<path d="M44.444 0l19.556 15.396-19.556 15.396v-12.729h-44.444v-5.333h44.444v-12.729z"></path>
</symbol>
</defs>
</svg>
